PathFileType	4	(X/Y/Z)	/Users/rkoike/Documents/python/sports2d/worker-zone-detection_Sports2D/worker-zone-detection_Sports2D_px_person00.trc
DataRate	CameraRate	NumFrames	NumMarkers	Units	OrigDataRate	OrigDataStartFrame	OrigNumFrames
60	60	4	22	m	60	568	4549
Frame#	Time	Hip			RHip			RKnee			RAnkle			RBigToe			RSmallToe			RHeel			LHip			LKnee			LAnkle			LBigToe			LSmallToe			LHeel			Neck			Head			Nose			RShoulder			RElbow			RWrist			LShoulder			LElbow			LWrist			
		X1	Y1	Z1	X2	Y2	Z2	X3	Y3	Z3	X4	Y4	Z4	X5	Y5	Z5	X6	Y6	Z6	X7	Y7	Z7	X8	Y8	Z8	X9	Y9	Z9	X10	Y10	Z10	X11	Y11	Z11	X12	Y12	Z12	X13	Y13	Z13	X14	Y14	Z14	X15	Y15	Z15	X16	Y16	Z16	X17	Y17	Z17	X18	Y18	Z18	X19	Y19	Z19	X20	Y20	Z20	X21	Y21	Z21	X22	Y22	Z22
568	9.466666666666667	714.9679380592838	768.1889696920903	0.0	765.2118575909701	765.8981220369099	0.0	768.6021349532501	928.6185410454057	0.0	777.8558849051141	1075.990989126794	0.0	748.2419640072177	1049.1626088311712	0.0	794.1352178672671	1055.3590308480684	0.0	779.053049727047	1089.3343414123356	0.0	670.5154889923288	774.879643543502	0.0	654.4068261405512	904.3660123556873	0.0	640.109846405587	987.9176315383104	0.0	608.9301934991602	956.7131747794531	0.0	594.8017024535591	973.0577766620182	0.0	645.8530832604239	1003.865101107789	0.0	691.263260119425	477.1245856750293	0.0	668.347092030187	343.94070994407264	0.0	650.6152507663139	437.7264356805288	0.0	787.8254228249203	513.5476224257499	0.0	811.8585508007312	613.6044144314343	0.0	743.3389785793331	625.3339561594256	0.0	604.935042634017	555.7859392264361	0.0	592.0437689614336	714.2371995406685	0.0	589.2097241336029	831.5322912650572	0.0
569	9.483333333333333	710.3029117826617	765.4138926619662	0.0	760.5413432538516	763.809298828361	0.0	766.2067915681004	925.3320572450689	0.0	777.7984866124119	1075.63238025198	0.0	746.6250722706401	1053.0189148445345	0.0	792.5485739860034	1059.4547663799476	0.0	778.6769356266841	1089.1589245198625	0.0	666.2558950665765	772.908733702904	0.0	652.8698811741555	903.0506655142324	0.0	640.9978004725895	988.5929231404059	0.0	611.2092192084101	958.3233794316944	0.0	596.9710104979853	974.7114928372041	0.0	646.4509606012238	1005.2557520274963	0.0	686.9302295259001	475.9984067480914	0.0	664.7691512557032	343.4277494356443	0.0	647.3271489779376	436.7944191865568	0.0	783.0598148864692	511.8535930369311	0.0	808.3762878558642	614.7750878477639	0.0	741.9380698969236	633.438692944973	0.0	600.3382194694989	553.3926225083625	0.0	587.5714097088709	711.3323319166782	0.0	584.4527251249078	827.9590594788498	0.0
570	9.5	705.4611585379544	762.839825023385	0.0	755.7919011844136	761.5247895095138	0.0	763.6422846821295	921.9894676707659	0.0	777.7227219512857	1075.152754047396	0.0	744.6239210393452	1057.4711043358593	0.0	791.2604616738844	1064.167181708412	0.0	778.3857558283087	1088.531326627333	0.0	661.7500503539826	770.9620062177698	0.0	650.8351681377791	902.2377444748097	0.0	641.530829535064	989.243369244723	0.0	612.7628421009499	959.7281855323345	0.0	598.574080286016	976.2068377766527	0.0	646.7705364196572	1006.5037894708995	0.0	682.509807697139	474.70525803229395	0.0	661.0178058497571	342.72821598581805	0.0	643.8467077757606	435.46898150167203	0.0	778.3521204160573	510.05734669535	0.0	804.8563906270692	615.8583235172154	0.0	741.6368452911153	642.6764131783491	0.0	595.855955704318	550.9893333763167	0.0	582.8810468364148	708.7458665202355	0.0	579.3278899475649	824.2574905607921	0.0
571	9.516666666666666	700.4782149769609	760.1495740456771	0.0	750.9837964850979	758.7338105483076	0.0	760.9778111329123	918.1371671570421	0.0	777.6136655264074	1074.3981282937166	0.0	742.0600128975361	1060.9065886721	0.0	790.1122537915177	1067.8685197898362	0.0	778.2766774092221	1087.4428399981737	0.0	657.0321954784595	768.6881664495972	0.0	648.2792966022954	901.2610648161714	0.0	641.6483835139472	989.565458412946	0.0	613.6182878806648	960.7595823769495	0.0	599.6085837841268	977.2365628743319	0.0	646.8363537221372	1007.2043075793338	0.0	678.0902449039932	473.13839442659383	0.0	657.0587059413	341.7685494093631	0.0	640.1136064358411	433.67897414415	0.0	773.7430392030523	508.20055015234476	0.0	801.3252802556322	616.6265653454175	0.0	742.6322093113148	652.6250214785399	0.0	591.5096196580871	548.530774507638	0.0	577.9962765425116	706.257723771767	0.0	573.8836203352465	820.2526343696634	0.0
